<svg xmlns="http://www.w3.org/2000/svg" xmlns:xlink="http://www.w3.org/1999/xlink" width="180" zoomAndPan="magnify" viewBox="50 0 135 37.5" height="30" preserveAspectRatio="xMidYMid meet" version="1.0"><defs><g/><clipPath id="id1"><path d="M 6.375 3.699219 L 52.261719 3.699219 L 52.261719 33.304688 L 6.375 33.304688 Z M 6.375 3.699219 " clip-rule="nonzero"/></clipPath></defs><g clip-path="url(#id1)"><path fill="#ffffff" d="M 25.339844 3.75 C 26.082031 3.800781 26.804688 3.941406 27.511719 4.171875 C 28.21875 4.402344 28.886719 4.714844 29.515625 5.109375 C 30.148438 5.503906 30.722656 5.96875 31.238281 6.503906 C 31.753906 7.039062 32.199219 7.628906 32.570312 8.273438 L 35.136719 12.734375 L 35.230469 12.179688 C 35.382812 11.621094 35.609375 11.09375 35.914062 10.601562 C 36.21875 10.109375 36.589844 9.671875 37.023438 9.289062 C 37.460938 8.90625 37.941406 8.597656 38.46875 8.355469 C 38.992188 8.117188 39.542969 7.960938 40.117188 7.886719 C 40.691406 7.808594 41.261719 7.820312 41.832031 7.914062 C 42.40625 8.007812 42.949219 8.183594 43.46875 8.4375 C 43.988281 8.695312 44.457031 9.023438 44.878906 9.417969 C 45.300781 9.816406 45.65625 10.265625 45.945312 10.765625 L 51.476562 20.367188 C 51.667969 20.699219 51.828125 21.046875 51.949219 21.414062 C 52.074219 21.777344 52.160156 22.152344 52.210938 22.53125 C 52.261719 22.914062 52.273438 23.296875 52.246094 23.683594 C 52.222656 24.066406 52.160156 24.445312 52.0625 24.816406 C 51.960938 25.1875 51.828125 25.546875 51.65625 25.894531 C 51.488281 26.238281 51.285156 26.5625 51.050781 26.871094 C 50.816406 27.175781 50.554688 27.453125 50.265625 27.707031 C 49.976562 27.960938 49.667969 28.1875 49.332031 28.378906 C 49 28.570312 48.652344 28.730469 48.289062 28.851562 C 47.925781 28.976562 47.550781 29.0625 47.171875 29.113281 C 46.789062 29.164062 46.40625 29.175781 46.023438 29.152344 C 45.640625 29.125 45.261719 29.0625 44.890625 28.964844 C 44.519531 28.863281 44.164062 28.730469 43.816406 28.558594 C 43.472656 28.386719 43.148438 28.183594 42.84375 27.949219 C 42.539062 27.714844 42.261719 27.453125 42.007812 27.164062 C 41.753906 26.875 41.53125 26.5625 41.339844 26.230469 L 40.273438 24.402344 L 40.273438 24.808594 C 40.203125 25.777344 39.984375 26.710938 39.613281 27.609375 C 39.246094 28.507812 38.746094 29.324219 38.117188 30.0625 C 37.488281 30.800781 36.757812 31.421875 35.929688 31.925781 C 35.101562 32.429688 34.214844 32.792969 33.269531 33.011719 C 32.328125 33.230469 31.371094 33.296875 30.40625 33.210938 C 29.441406 33.121094 28.511719 32.886719 27.625 32.5 C 26.734375 32.113281 25.925781 31.597656 25.203125 30.953125 C 24.476562 30.308594 23.871094 29.566406 23.382812 28.726562 L 21.761719 25.921875 L 21.597656 26.894531 C 21.449219 27.453125 21.222656 27.980469 20.917969 28.472656 C 20.609375 28.964844 20.242188 29.402344 19.804688 29.785156 C 19.371094 30.164062 18.890625 30.476562 18.363281 30.714844 C 17.835938 30.957031 17.285156 31.113281 16.714844 31.1875 C 16.140625 31.265625 15.566406 31.253906 14.996094 31.160156 C 14.425781 31.066406 13.882812 30.890625 13.363281 30.632812 C 12.84375 30.378906 12.375 30.050781 11.953125 29.65625 C 11.527344 29.257812 11.171875 28.808594 10.882812 28.308594 L 7.148438 21.839844 C 6.804688 21.253906 6.574219 20.628906 6.445312 19.960938 C 6.320312 19.292969 6.3125 18.625 6.417969 17.953125 C 6.527344 17.28125 6.742188 16.648438 7.070312 16.050781 C 7.394531 15.457031 7.8125 14.933594 8.320312 14.484375 C 8.828125 14.035156 9.398438 13.683594 10.027344 13.429688 C 10.65625 13.179688 11.3125 13.039062 11.988281 13.015625 C 12.667969 12.992188 13.328125 13.082031 13.972656 13.289062 C 14.621094 13.496094 15.210938 13.804688 15.75 14.21875 L 15.6875 13.949219 C 15.648438 13.617188 15.625 13.285156 15.621094 12.949219 C 15.613281 12.613281 15.628906 12.28125 15.660156 11.945312 C 15.691406 11.613281 15.742188 11.28125 15.8125 10.953125 C 15.878906 10.625 15.964844 10.304688 16.070312 9.984375 C 16.175781 9.667969 16.296875 9.355469 16.433594 9.050781 C 16.574219 8.746094 16.726562 8.449219 16.898438 8.160156 C 17.070312 7.871094 17.257812 7.59375 17.460938 7.328125 C 17.660156 7.0625 17.875 6.804688 18.105469 6.5625 C 18.335938 6.320312 18.578125 6.089844 18.835938 5.875 C 19.089844 5.65625 19.355469 5.457031 19.632812 5.269531 C 19.914062 5.082031 20.199219 4.910156 20.496094 4.757812 C 20.792969 4.601562 21.097656 4.464844 21.40625 4.34375 C 21.71875 4.222656 22.035156 4.117188 22.359375 4.03125 C 22.683594 3.945312 23.011719 3.878906 23.339844 3.828125 C 23.671875 3.777344 24.003906 3.746094 24.339844 3.734375 C 24.671875 3.71875 25.003906 3.726562 25.339844 3.75 Z M 25.339844 3.75 " fill-opacity="1" fill-rule="evenodd"/></g><g fill="#ffffff" fill-opacity="1"><g transform="translate(55.101732, 25.842345)"><g><path d="M 4.480469 -7.628906 C 4.480469 -10.539062 6.582031 -11.980469 8.679688 -11.980469 C 10.429688 -11.980469 12.199219 -10.972656 12.703125 -8.941406 L 16.484375 -8.941406 C 16.003906 -12.875 12.613281 -15.542969 8.679688 -15.542969 C 4.308594 -15.542969 0.765625 -12.132812 0.765625 -7.628906 C 0.765625 -3.125 4.308594 0.21875 8.679688 0.21875 C 12.65625 0.21875 15.9375 -2.425781 16.503906 -6.425781 L 12.722656 -6.425781 C 12.242188 -4.351562 10.472656 -3.300781 8.679688 -3.300781 C 6.582031 -3.300781 4.480469 -4.742188 4.480469 -7.628906 Z M 4.480469 -7.628906 "/></g></g></g><g fill="#ffffff" fill-opacity="1"><g transform="translate(71.317986, 25.842345)"><g><path d="M 4.023438 -15.304688 L 0.523438 -15.304688 L 0.523438 0 L 4.023438 0 Z M 4.023438 -15.304688 "/></g></g></g><g fill="#ffffff" fill-opacity="1"><g transform="translate(75.776133, 25.842345)"><g><path d="M 12.703125 -5.902344 C 12.703125 -10.121094 9.554688 -12.222656 6.40625 -12.222656 C 3.234375 -12.222656 0.0859375 -10.121094 0.0859375 -5.902344 C 0.0859375 -1.707031 3.257812 0.394531 6.40625 0.394531 C 9.554688 0.394531 12.703125 -1.707031 12.703125 -5.902344 Z M 3.542969 -5.902344 C 3.542969 -7.914062 4.960938 -8.917969 6.40625 -8.917969 C 7.980469 -8.917969 9.246094 -7.914062 9.246094 -5.902344 C 9.246094 -3.914062 7.828125 -2.929688 6.40625 -2.929688 C 4.960938 -2.929688 3.542969 -3.914062 3.542969 -5.902344 Z M 3.542969 -5.902344 "/></g></g></g><g fill="#ffffff" fill-opacity="1"><g transform="translate(88.626682, 25.842345)"><g><path d="M 8.199219 -1.203125 L 8.199219 0 L 11.675781 0 L 11.675781 -11.828125 L 8.023438 -11.828125 L 8.023438 -5.398438 C 8.023438 -3.824219 6.953125 -2.953125 5.925781 -2.953125 C 4.984375 -2.953125 4.066406 -3.695312 4.066406 -5.335938 L 4.066406 -11.828125 L 0.589844 -11.828125 L 0.589844 -5.3125 C 0.570312 -2.339844 1.507812 0.152344 4.984375 0.152344 C 6.207031 0.152344 7.390625 -0.175781 8.199219 -1.203125 Z M 8.199219 -1.203125 "/></g></g></g><g fill="#ffffff" fill-opacity="1"><g transform="translate(100.843435, 25.842345)"><g><path d="M 6.035156 -12.023438 C 2.1875 -12.023438 0.304688 -9.3125 0.304688 -6.078125 C 0.304688 -2.820312 2.25 0.152344 5.988281 0.152344 C 7.125 0.152344 8.285156 -0.175781 9.09375 -1.179688 L 9.09375 0 L 12.527344 0 L 12.527344 -15.414062 L 9.09375 -15.414062 L 9.09375 -10.757812 C 8.308594 -11.652344 7.191406 -12.023438 6.035156 -12.023438 Z M 6.40625 -3.148438 C 4.65625 -3.148438 3.761719 -4.570312 3.761719 -5.988281 C 3.761719 -7.433594 4.632812 -8.855469 6.40625 -8.855469 C 7.890625 -8.855469 9.09375 -7.5625 9.09375 -5.988281 C 9.09375 -4.417969 7.890625 -3.148438 6.40625 -3.148438 Z M 6.40625 -3.148438 "/></g></g></g><g fill="#ffffff" fill-opacity="1"><g transform="translate(113.912539, 25.842345)"><g><path d="M 11.652344 -11.28125 L 11.652344 -11.828125 L 8.089844 -11.828125 L 6.625 -8.046875 L 5.75 -5.050781 L 4.917969 -8.046875 L 3.453125 -11.828125 L -0.132812 -11.828125 L -0.132812 -11.28125 L 3.804688 -0.960938 L 2.273438 2.929688 L 2.273438 3.453125 L 5.835938 3.453125 C 7.761719 -1.464844 9.707031 -6.363281 11.652344 -11.28125 Z M 11.652344 -11.28125 "/></g></g></g></svg>